ffmpeg version 3.4.8-0ubuntu0.2 Copyright (c) 2000-2020 the FFmpeg developers
  built with gcc 7 (Ubuntu 7.5.0-3ubuntu1~18.04)
  configuration: --prefix=/usr --extra-version=0ubuntu0.2 --toolchain=hardened --libdir=/usr/lib/x86_64-linux-gnu --incdir=/usr/include/x86_64-linux-gnu --enable-gpl --disable-stripping --enable-avresample --enable-avisynth --enable-gnutls --enable-ladspa --enable-libass --enable-libbluray --enable-libbs2b --enable-libcaca --enable-libcdio --enable-libflite --enable-libfontconfig --enable-libfreetype --enable-libfribidi --enable-libgme --enable-libgsm --enable-libmp3lame --enable-libmysofa --enable-libopenjpeg --enable-libopenmpt --enable-libopus --enable-libpulse --enable-librubberband --enable-librsvg --enable-libshine --enable-libsnappy --enable-libsoxr --enable-libspeex --enable-libssh --enable-libtheora --enable-libtwolame --enable-libvorbis --enable-libvpx --enable-libwavpack --enable-libwebp --enable-libx265 --enable-libxml2 --enable-libxvid --enable-libzmq --enable-libzvbi --enable-omx --enable-openal --enable-opengl --enable-sdl2 --enable-libdc1394 --enable-libdrm --enable-libiec61883 --enable-chromaprint --enable-frei0r --enable-libopencv --enable-libx264 --enable-shared
  libavutil      55. 78.100 / 55. 78.100
  libavcodec     57.107.100 / 57.107.100
  libavformat    57. 83.100 / 57. 83.100
  libavdevice    57. 10.100 / 57. 10.100
  libavfilter     6.107.100 /  6.107.100
  libavresample   3.  7.  0 /  3.  7.  0
  libswscale      4.  8.100 /  4.  8.100
  libswresample   2.  9.100 /  2.  9.100
  libpostproc    54.  7.100 / 54.  7.100
[rawvideo @ 0x5602da5cba20] Estimating duration from bitrate, this may be inaccurate
Input #0, rawvideo, from '../../SVC-Encoder-20220109T061506Z-001/SVC-Encoder/Dataset/RollerCoaster/6f_2x2/tile_yuv/f1_t1_480x480.yuv':
  Duration: 00:00:10.00, start: 0.000000, bitrate: 82944 kb/s
    Stream #0:0: Video: rawvideo (I420 / 0x30323449), yuv420p, 480x480, 82944 kb/s, 30 tbr, 30 tbn, 30 tbc
Stream mapping:
  Stream #0:0 -> #0:0 (rawvideo (native) -> h264 (libx264))
Press [q] to stop, [?] for help
[libx264 @ 0x5602da5d8c60] using cpu capabilities: MMX2 SSE2Fast LZCNT SSSE3 SSE4.2 AVX
[libx264 @ 0x5602da5d8c60] profile High, level 3.0
Output #0, rawvideo, to 'RollerCoaster_f1_t1_480x480_x264_QP_20.h264':
  Metadata:
    encoder         : Lavf57.83.100
    Stream #0:0: Video: h264 (libx264), yuv420p, 480x480, q=-1--1, 30 fps, 30 tbn, 30 tbc
    Metadata:
      encoder         : Lavc57.107.100 libx264
    Side data:
      cpb: bitrate max/min/avg: 0/0/0 buffer size: 0 vbv_delay: -1
frame=   96 fps=0.0 q=26.0 PSNR=Y:nan U:nan V:nan *:nan size=     256kB time=00:00:01.76 bitrate=1187.1kbits/s speed=3.45x    frame=  153 fps=151 q=26.0 PSNR=Y:nan U:nan V:nan *:nan size=     256kB time=00:00:03.66 bitrate= 572.0kbits/s speed=3.62x    frame=  211 fps=139 q=26.0 PSNR=Y:nan U:nan V:nan *:nan size=     512kB time=00:00:05.60 bitrate= 749.0kbits/s speed=3.69x    frame=  272 fps=134 q=26.0 PSNR=Y:nan U:nan V:nan *:nan size=     768kB time=00:00:07.63 bitrate= 824.2kbits/s speed=3.76x    frame=  300 fps=117 q=26.0 LPSNR=Y:inf U:inf V:inf *:inf size=    1281kB time=00:00:09.93 bitrate=1056.1kbits/s speed=3.88x    
video:1281kB audio:0kB subtitle:0kB other streams:0kB global headers:0kB muxing overhead: 0.000000%
[libx264 @ 0x5602da5d8c60] frame I:2     Avg QP:18.26  size: 46846  PSNR Mean Y:46.77 U:49.80 V:51.80 Avg:47.71 Global:47.61
[libx264 @ 0x5602da5d8c60] frame P:76    Avg QP:19.89  size: 12496  PSNR Mean Y:44.59 U:49.28 V:51.04 Avg:45.77 Global:45.67
[libx264 @ 0x5602da5d8c60] frame B:222   Avg QP:25.46  size:  1207  PSNR Mean Y:42.68 U:48.94 V:50.85 Avg:44.03 Global:44.01
[libx264 @ 0x5602da5d8c60] consecutive B-frames:  1.3%  0.0%  0.0% 98.7%
[libx264 @ 0x5602da5d8c60] mb I  I16..4: 12.3% 74.3% 13.4%
[libx264 @ 0x5602da5d8c60] mb P  I16..4:  0.5%  0.2%  0.0%  P16..4: 29.2% 26.4% 23.3%  0.0%  0.0%    skip:20.4%
[libx264 @ 0x5602da5d8c60] mb B  I16..4:  0.0%  0.0%  0.0%  B16..8: 33.4% 11.5%  2.0%  direct: 1.6%  skip:51.5%  L0:34.1% L1:43.8% BI:22.1%
[libx264 @ 0x5602da5d8c60] 8x8 transform intra:64.9% inter:63.0%
[libx264 @ 0x5602da5d8c60] coded y,uvDC,uvAC intra: 66.3% 74.0% 46.7% inter: 18.9% 11.4% 0.1%
[libx264 @ 0x5602da5d8c60] i16 v,h,dc,p: 16% 35% 16% 33%
[libx264 @ 0x5602da5d8c60] i8 v,h,dc,ddl,ddr,vr,hd,vl,hu:  7% 25% 16%  5%  6%  4% 11% 10% 15%
[libx264 @ 0x5602da5d8c60] i4 v,h,dc,ddl,ddr,vr,hd,vl,hu: 10% 23% 11%  7%  7%  5% 10% 12% 14%
[libx264 @ 0x5602da5d8c60] i8c dc,h,v,p: 45% 28% 12% 15%
[libx264 @ 0x5602da5d8c60] Weighted P-Frames: Y:0.0% UV:0.0%
[libx264 @ 0x5602da5d8c60] ref P L0: 60.0% 18.6% 17.6%  3.8%
[libx264 @ 0x5602da5d8c60] ref B L0: 87.6% 11.2%  1.2%
[libx264 @ 0x5602da5d8c60] ref B L1: 88.8% 11.2%
[libx264 @ 0x5602da5d8c60] PSNR Mean Y:43.188 U:49.034 V:50.901 Avg:44.498 Global:44.393 kb/s:1049.06
